<svg width="3000" height="1700" viewBox="0 0 3000 1700" fill="none" xmlns="http://www.w3.org/2000/svg">
<path d="M1176.83 911.294V908.67H1156.35C1147.28 908.67 1141.72 902.548 1141.72 891.761V733.741C1141.72 722.954 1147.28 716.831 1156.35 716.831H1176.83V714.207H1075V716.831H1098.12C1107.19 716.831 1112.45 722.954 1112.45 733.741V891.761C1111.58 903.423 1107.19 908.67 1097.82 908.67H1075V911.294H1176.83Z" fill="white"/>
<path d="M1347.92 839.282C1346.16 880.099 1318.66 914.793 1278.57 914.793C1240.82 914.793 1221.8 879.807 1221.8 821.497C1221.8 751.234 1239.07 713.624 1274.47 713.624C1315.44 713.624 1337.09 761.73 1347.04 799.923H1349.67L1347.92 711H1345.58C1342.07 723.537 1336.8 732.866 1326.85 743.945C1318.07 730.825 1303.15 711 1273.3 711C1239.36 711 1191.37 748.61 1191.37 816.249C1191.37 870.769 1231.75 917.708 1279.15 917.708C1315.44 917.708 1347.63 887.679 1350.55 839.282H1347.92Z" fill="white"/>
<path d="M1460.72 917.708C1509.3 917.708 1551.14 869.311 1551.14 813.917C1551.14 764.645 1512.81 712.166 1459.85 712.166C1408.05 712.166 1370.6 765.811 1370.6 813.917C1370.6 869.603 1412.44 917.708 1460.72 917.708ZM1461.6 914.793C1424.15 914.793 1410.39 887.387 1408.05 869.603C1405.42 850.361 1404.84 811.585 1404.84 803.713C1404.84 767.852 1408.05 714.79 1460.14 714.79C1488.52 714.79 1509.59 731.117 1513.69 761.146C1515.15 772.225 1516.91 805.17 1516.91 822.08C1516.91 879.224 1501.69 914.793 1461.6 914.793Z" fill="white"/>
<path d="M1726.43 918C1726.43 916.542 1726.13 915.085 1726.13 913.627C1726.13 900.507 1729.94 890.303 1734.33 879.224V774.849C1734.33 731.992 1741.64 716.831 1767.69 716.831H1770.9V714.207H1684.58V716.831H1690.14C1724.38 716.831 1731.4 734.907 1731.4 777.182V876.6C1694.53 822.372 1657.08 768.435 1620.21 714.207H1557.3V716.831H1566.37C1592.41 716.831 1599.43 736.365 1599.43 766.394V847.445C1599.43 889.428 1588.61 908.67 1560.81 908.67H1556.71V911.294H1652.98V908.67H1643.91C1613.48 908.67 1602.07 890.303 1602.07 847.737V739.572L1724.38 918H1726.43Z" fill="white"/>
<path d="M1787.28 915.668C1794.3 897.592 1799.27 890.011 1805.42 883.597C1820.34 906.338 1840.82 917.708 1863.36 917.708C1896.71 917.708 1921 893.51 1921 860.273C1921 843.946 1913.98 826.745 1897.59 813.042C1890.28 807.211 1875.06 799.923 1854.28 792.342C1823.27 781.263 1799.57 770.476 1799.57 748.61C1799.57 730.242 1815.07 713.915 1838.48 713.915C1881.5 713.915 1904.03 756.482 1907.83 788.844H1910.47V713.041H1907.54C1904.03 723.537 1900.52 729.951 1891.15 737.823C1875.06 719.163 1858.38 711.292 1838.19 711.292C1808.64 711.292 1785.81 734.032 1785.81 763.77C1785.81 778.056 1793.71 792.925 1806 803.13C1813.03 808.961 1827.36 815.958 1848.43 823.83C1873.89 833.451 1907.83 846.57 1907.83 874.851C1907.83 897.008 1889.11 914.793 1864.53 914.793C1805.42 914.793 1791.67 846.279 1787.28 823.83H1784.64V915.668H1787.28Z" fill="white"/>
<path d="M1376.77 981.394V981.074H1374.31C1373.21 981.074 1372.53 980.221 1372.53 978.905V958.885C1372.57 957.747 1372.78 957.711 1374.31 957.711C1378.19 957.711 1380.93 960.698 1381.11 965.677H1381.39V957.356H1360V965.677H1360.32C1361 959.525 1363.63 957.711 1367.58 957.711C1368.65 957.711 1368.97 957.782 1368.97 958.885V978.905C1368.97 980.221 1368.29 981.074 1367.19 981.074H1364.16V981.394H1376.77Z" fill="white"/>
<path d="M1400.67 981.394V981.074H1399.6C1398.57 981.074 1398.17 980.612 1398.17 979.332V972.433C1398.17 970.62 1397.43 965.961 1393.3 965.961C1390.66 965.961 1389.24 968.415 1388.28 971.615V957.036H1387.99C1386.78 957.213 1384.65 957.391 1383.01 957.391V957.711H1383.65C1384.79 957.711 1385.57 958.494 1385.57 959.667V979.332C1385.57 980.612 1385.22 981.074 1384.15 981.074H1382.98V981.394H1390.81V981.074H1389.74C1388.67 981.074 1388.24 980.612 1388.24 979.332V975.314C1388.24 973.927 1388.78 966.423 1393.01 966.423C1394.72 966.423 1395.54 968.059 1395.54 970.655V979.332C1395.54 980.612 1395.18 981.074 1394.12 981.074H1392.87V981.394H1400.67Z" fill="white"/>
<path d="M1415.49 975.634C1414.96 977.981 1413.03 981.252 1409.47 981.252C1405.38 981.252 1405.06 976.558 1405.06 973.927C1405.06 973.678 1405.06 973.429 1405.06 973.216H1415.67C1415.28 968.984 1412.39 965.926 1408.76 965.926C1405.02 965.926 1401.96 969.375 1401.96 973.642C1401.96 978.158 1405.06 981.714 1409.12 981.714C1413 981.714 1415.13 978.478 1415.85 975.634H1415.49ZM1405.06 972.824C1405.13 969.375 1406.13 966.246 1408.83 966.246C1411.15 966.246 1412.61 968.273 1412.61 971.544C1412.61 972.469 1412.46 972.824 1411.54 972.824H1405.06Z" fill="white"/>
<path d="M1442.81 981.394V981.074H1441.74C1440.71 981.074 1440.31 980.612 1440.31 979.332V972.078C1440.21 970.122 1439.74 965.997 1435.51 965.997C1433.16 965.997 1431.13 967.49 1430.06 971.046V966.103H1429.85C1429.53 966.103 1429.53 966.175 1428.25 966.317C1427.64 966.388 1426.22 966.495 1425.76 966.495H1424.58V966.815H1425.51C1426.68 966.815 1427.32 967.384 1427.32 968.379V979.332C1427.32 980.612 1426.97 981.074 1425.9 981.074H1424.69V981.394H1432.59V981.074H1431.45C1430.38 981.074 1430.03 980.612 1430.03 979.332V974.673C1430.03 969.659 1432.2 966.566 1434.87 966.566C1436.9 966.566 1437.61 968.237 1437.61 971.189V979.332C1437.61 980.612 1437.25 981.074 1436.18 981.074H1434.94V981.394H1442.81Z" fill="white"/>
<path d="M1457.55 975.634C1457.02 977.981 1455.09 981.252 1451.53 981.252C1447.44 981.252 1447.12 976.558 1447.12 973.927C1447.12 973.678 1447.12 973.429 1447.12 973.216H1457.73C1457.34 968.984 1454.45 965.926 1450.82 965.926C1447.08 965.926 1444.02 969.375 1444.02 973.642C1444.02 978.158 1447.12 981.714 1451.18 981.714C1455.06 981.714 1457.19 978.478 1457.91 975.634H1457.55ZM1447.12 972.824C1447.19 969.375 1448.19 966.246 1450.89 966.246C1453.21 966.246 1454.67 968.273 1454.67 971.544C1454.67 972.469 1454.52 972.824 1453.6 972.824H1447.12Z" fill="white"/>
<path d="M1474.2 981.714C1474.23 981.714 1474.3 981.714 1474.34 981.714C1474.38 981.714 1474.38 981.714 1474.41 981.714C1474.48 980.399 1475.73 979.19 1476.08 978.87L1479.5 970.157C1480.57 967.384 1481.28 966.886 1482.95 966.815V966.495H1477.15V966.815H1477.72C1478.93 966.815 1479.64 967.17 1479.64 968.13C1479.68 968.557 1479.5 968.948 1479.32 969.624L1479.18 970.157L1475.94 978.336L1472.81 968.13C1472.74 967.917 1472.74 967.739 1472.74 967.561C1472.74 967.064 1473.13 966.815 1473.81 966.815H1475.27V966.495H1467.47V966.815H1468.43C1470.21 966.815 1470.32 969.197 1470.85 970.726L1467.65 978.443L1464.12 968.344C1463.95 967.881 1463.91 967.633 1463.91 967.419C1463.91 966.992 1464.19 966.815 1464.87 966.815H1465.83V966.495H1458.61V966.815H1459.14C1460.64 966.815 1460.81 967.241 1461.81 969.98L1466.01 981.714H1466.26C1466.33 980.399 1467.43 979.332 1467.79 979.012L1470.99 971.26L1474.2 981.714Z" fill="white"/>
<path d="M1509.83 981.394V981.074H1509.4C1508.48 981.074 1507.59 980.541 1506.87 979.545L1501.43 972.078L1503.63 969.837C1505.95 967.49 1506.98 966.957 1508.76 966.815V966.495H1500.15V966.815H1501.04C1502.99 966.815 1503.96 967.419 1503.96 968.273C1503.96 968.877 1503.24 969.766 1502.74 970.264L1496.91 976.131V957H1496.48C1495.84 957.213 1493.53 957.356 1492.46 957.356H1491.43V957.676H1492.49C1493.38 957.676 1494.2 958.245 1494.2 959.311V979.332C1494.2 980.612 1493.85 981.074 1492.78 981.074H1491.6V981.394H1499.47V981.074H1498.33C1496.73 981.074 1496.87 979.901 1496.87 977.945C1496.87 977.483 1496.91 976.985 1496.91 976.629L1499.51 973.998L1503.74 979.794C1503.92 980.008 1503.99 980.221 1503.99 980.434C1503.99 980.825 1503.71 981.074 1503.21 981.074H1501.25V981.394H1509.83Z" fill="white"/>
<path d="M1523.25 975.634C1522.71 977.981 1520.79 981.252 1517.23 981.252C1513.14 981.252 1512.82 976.558 1512.82 973.927C1512.82 973.678 1512.82 973.429 1512.82 973.216H1523.43C1523.03 968.984 1520.15 965.926 1516.52 965.926C1512.78 965.926 1509.72 969.375 1509.72 973.642C1509.72 978.158 1512.82 981.714 1516.88 981.714C1520.76 981.714 1522.89 978.478 1523.6 975.634H1523.25ZM1512.82 972.824C1512.89 969.375 1513.89 966.246 1516.59 966.246C1518.91 966.246 1520.36 968.273 1520.36 971.544C1520.36 972.469 1520.22 972.824 1519.3 972.824H1512.82Z" fill="white"/>
<path d="M1531.58 985.093C1530.23 988.329 1528.63 989.644 1526.85 989.609C1526.28 989.609 1526.03 989.395 1526.03 989.075C1526.03 988.613 1526.92 988.044 1526.92 987.12C1526.92 985.982 1526.14 985.164 1525.18 985.164C1524.07 985.164 1523.36 985.982 1523.36 987.155C1523.36 988.578 1524.43 990 1526.78 990C1528.59 990 1530.44 988.72 1531.9 985.235L1538.06 970.513C1539.31 967.561 1540.09 966.85 1541.8 966.815V966.495H1534.79V966.815H1535.64C1537.24 966.815 1537.99 967.526 1537.99 968.806C1537.99 969.446 1537.78 970.228 1537.49 970.94L1533.97 979.439L1529.38 968.344C1529.38 968.13 1529.27 967.881 1529.27 967.704C1529.27 967.099 1529.73 966.815 1530.44 966.815H1532.26V966.495H1523.61V966.815H1524.36C1525.71 966.815 1526.17 967.384 1527.1 969.588L1532.61 982.639L1531.58 985.093Z" fill="white"/>
<path d="M1558.5 989.68V989.36H1557.36C1556.15 989.36 1556 988.933 1555.97 988.186C1555.9 987.831 1555.9 986.835 1555.9 983.386V977.02C1556.93 979.901 1558.64 981.679 1560.88 981.679C1564.48 981.679 1567.57 978.016 1567.57 973.678C1567.57 969.446 1564.48 965.819 1560.92 965.819C1558.46 965.819 1556.86 967.739 1555.93 970.513V966.032H1555.54C1554.69 966.139 1552.52 966.388 1551.16 966.388H1549.99V966.708H1551.2C1552.52 966.708 1553.23 967.206 1553.23 968.557V987.617C1553.23 988.898 1552.87 989.36 1551.8 989.36H1550.56V989.68H1558.5ZM1560.85 981.359C1558.03 981.359 1555.86 978.052 1555.86 973.891C1555.86 969.873 1557.71 966.139 1560.85 966.139C1563.41 966.139 1564.65 968.486 1564.65 972.931C1564.65 978.478 1563.44 981.359 1560.85 981.359Z" fill="white"/>
<path d="M1576.91 981.394V981.074H1575.81C1574.6 981.074 1574.56 980.541 1574.46 979.759C1574.42 979.367 1574.42 977.732 1574.42 973.82V966.139H1574.17C1572.85 966.317 1571.32 966.495 1568.97 966.495V966.815H1569.97C1571.22 966.815 1571.75 967.384 1571.75 968.415V979.332C1571.75 980.612 1571.39 981.074 1570.33 981.074H1569.12V981.394H1576.91ZM1573.03 961.161C1573.99 961.161 1574.78 960.378 1574.78 959.418C1574.78 958.458 1573.99 957.676 1573.03 957.676C1572.07 957.676 1571.29 958.458 1571.29 959.418C1571.29 960.378 1572.07 961.161 1573.03 961.161Z" fill="white"/>
<path d="M1591.94 975.634C1591.4 977.981 1589.48 981.252 1585.92 981.252C1581.83 981.252 1581.51 976.558 1581.51 973.927C1581.51 973.678 1581.51 973.429 1581.51 973.216H1592.11C1591.72 968.984 1588.84 965.926 1585.21 965.926C1581.47 965.926 1578.41 969.375 1578.41 973.642C1578.41 978.158 1581.51 981.714 1585.56 981.714C1589.44 981.714 1591.58 978.478 1592.29 975.634H1591.94ZM1581.51 972.824C1581.58 969.375 1582.57 966.246 1585.28 966.246C1587.59 966.246 1589.05 968.273 1589.05 971.544C1589.05 972.469 1588.91 972.824 1587.98 972.824H1581.51Z" fill="white"/>
<path d="M1606.38 975.598C1606.2 978.834 1604.17 981.323 1601.11 981.323C1598.4 981.323 1596.94 978.443 1596.94 973.713C1596.94 969.126 1598.26 966.317 1601.21 966.317C1603.17 966.317 1604.74 967.561 1604.74 968.486C1604.74 968.77 1604.6 968.948 1604.13 969.162C1603.35 969.553 1603.03 970.086 1603.03 970.797C1603.03 971.864 1603.78 972.575 1604.67 972.575C1605.73 972.575 1606.48 971.829 1606.48 970.548C1606.48 968.273 1604.2 965.961 1601.18 965.961C1597.33 965.961 1593.95 969.731 1593.95 973.998C1593.95 978.052 1597.23 981.679 1600.97 981.679C1604.1 981.679 1606.41 979.403 1606.7 975.634C1606.59 975.634 1606.48 975.598 1606.38 975.598Z" fill="white"/>
<path d="M1622 975.634C1621.47 977.981 1619.55 981.252 1615.99 981.252C1611.89 981.252 1611.57 976.558 1611.57 973.927C1611.57 973.678 1611.57 973.429 1611.57 973.216H1622.18C1621.79 968.984 1618.91 965.926 1615.28 965.926C1611.54 965.926 1608.48 969.375 1608.48 973.642C1608.48 978.158 1611.57 981.714 1615.63 981.714C1619.51 981.714 1621.65 978.478 1622.36 975.634H1622ZM1611.57 972.824C1611.65 969.375 1612.64 966.246 1615.35 966.246C1617.66 966.246 1619.12 968.273 1619.12 971.544C1619.12 972.469 1618.98 972.824 1618.05 972.824H1611.57Z" fill="white"/>
<path d="M1634.79 972.006V966.103H1634.47C1634.33 966.708 1634.04 967.633 1633.12 967.917C1631.76 966.495 1630.66 965.926 1628.88 965.926C1626.53 965.926 1624.72 967.704 1624.72 970.051C1624.72 971.153 1625.04 972.078 1625.71 972.718C1626.5 973.464 1627.1 973.962 1630.27 974.994C1633.76 976.131 1634.68 976.985 1634.68 978.585C1634.68 980.043 1633.44 981.394 1631.3 981.394C1627.96 981.394 1625.86 978.799 1625 974.922H1624.68V981.714H1624.93C1625.46 980.399 1625.57 979.759 1626.53 979.439C1627.85 981.003 1629.38 981.75 1631.19 981.75C1633.97 981.75 1636 979.83 1636 977.198C1636 974.282 1633.65 973.038 1630.13 972.042C1627.78 971.366 1625.89 970.797 1625.89 968.913C1625.89 967.561 1626.92 966.246 1628.99 966.246C1632.33 966.246 1633.94 969.553 1634.51 972.006H1634.79Z" fill="white"/>
</svg>
